<svg width="136" height="32" fill="none" xmlns="http://www.w3.org/2000/svg"><g clip-path="url(#a)"><mask id="b" style="mask-type:luminance" maskUnits="userSpaceOnUse" x="0" y="0" width="136" height="32"><path d="M135.2 0H.8v31.256h134.4V0Z" fill="#fff"/></mask><g mask="url(#b)" fill="#202020"><path d="M25.583 31.256h6.621c1.779 0 3.238-1.758 3.238-3.907s-1.459-3.907-3.238-3.907H11.33c-1.779 0-3.237 1.758-3.237 3.907s1.458 3.907 3.237 3.907h6.882a3.905 3.905 0 0 1 5.944-1.892 3.906 3.906 0 0 1 1.427 1.892Zm6.621-23.442H11.33c-1.779 0-3.237-1.758-3.237-3.907S9.55 0 11.33 0h20.874c1.779 0 3.238 1.758 3.238 3.907s-1.459 3.907-3.238 3.907ZM4.46 19.534c-2.013 0-3.66-1.757-3.66-3.906s1.647-3.907 3.66-3.907h34.369c2 0 3.646 1.758 3.646 3.907s-1.646 3.907-3.646 3.907H4.459Zm69.01 8.906V2.633a2.631 2.631 0 0 0-2.604-2.634 2.56 2.56 0 0 0-2.605 2.634v9.869H52.112v-9.87A2.635 2.635 0 0 0 49.508 0a2.579 2.579 0 0 0-2.605 2.634V28.44c0 1.453 1.146 2.784 2.605 2.784 1.55 0 2.604-1.33 2.604-2.784V16.93h16.15v11.505c0 1.453 1.109 2.784 2.604 2.784 1.563.005 2.604-1.326 2.604-2.78ZM81.318 0a2.605 2.605 0 1 0 0 5.209 2.605 2.605 0 0 0 0-5.21Zm2.605 28.698V10.874c0-1.279-1.256-2.498-2.605-2.498a2.553 2.553 0 0 0-2.604 2.498v17.824c0 1.323 1.26 2.526 2.706 2.526a2.519 2.519 0 0 0 2.503-2.526Zm26.604-17.91a2.437 2.437 0 0 0-.746-1.738 2.43 2.43 0 0 0-1.768-.674 2.363 2.363 0 0 0-2.24 1.503l-5.699 15.386-6.048-15.433a2.344 2.344 0 0 0-2.24-1.456 2.433 2.433 0 0 0-2.466 2.365 1.95 1.95 0 0 0 .182.865l6.947 16.964c.55 1.365 2.026 2.654 3.534 2.654h.091c1.508 0 2.727-1.29 3.321-2.654l6.95-16.964c.119-.256.182-.535.182-.818Zm24.658 8.181c0 1.263-1.013 2.196-2.313 2.196h-14.385c.315 3.245 2.893 6.142 6.928 6.142a9.27 9.27 0 0 0 4.837-1.443 2.004 2.004 0 0 1 3.003 1.714c0 2.477-5.558 3.604-8.335 3.604-6.499 0-11.338-4.55-11.338-11.447 0-6.309 4.571-11.4 10.981-11.4 5.064 0 8.739 3.065 10.083 7.75.314.932.495 1.902.539 2.884Zm-4.152-1.224c-.091-2.56-1.823-5.85-6.084-5.85-4.001 0-5.931 3.211-6.158 5.85h12.242Z"/></g></g><defs><clipPath id="a"><path fill="#fff" transform="translate(.8)" d="M0 0h134.4v32H0z"/></clipPath></defs></svg>