<svg xmlns="http://www.w3.org/2000/svg" viewBox="0 0 561.5 90" style="enable-background:new 0 0 561.5 90" xml:space="preserve"><path d="M94.3 2H65.4c-26 0-28 11.2-28 26.2v27.9c0 15.6 2 26.2 28.1 26.2h28.8c26 0 28-11.2 28-26.1v-28c0-14.9-2-26.2-28-26.2zM0 22.1C0 8.9 5.2 2 14 2s14 6.9 14 20.1v40.1c0 13.2-5.2 20.1-14 20.1S0 75.4 0 62.2V22.1zm419.5 40.2c-8.3 0-12.6-6.9-12.6-15.3s4.2-15 12.6-15c8.6 0 12.6 6.8 12.6 14.9 0 8.7-4.3 15.4-12.6 15.4zM337.9 32c4.9 0 6.9 2.8 6.9 5.3 0 6-6.1 8.6-18.8 9 0-7.4 4.2-14.3 11.9-14.3zm-54.2 30.3c-7.9 0-11.2-6.4-11.2-15.3 0-8.8 3.4-14.9 11.2-14.9 8 0 11.7 6.3 11.7 14.9.1 8.9-3.9 15.3-11.7 15.3zm-66.7-39h-12.3l20.5 46.9c-3.9 8.7-6 10.8-8.7 10.8-2.9 0-5.6-2.3-7.5-4.3l-5.4 7.2c3.7 3.9 8.7 6.1 13.9 6.1 6.5 0 11.4-3.7 14.3-10.5l23.6-56.3h-12.1L231 56.8l-14-33.5zM543.6 32c6 0 7.2 4.1 7.2 13.7V71h10.7V39c0-11.5-7.9-16.5-15.2-16.5-6.5 0-12.4 4-15.7 11.5-1.9-7.2-7.9-11.5-14.9-11.5-6.1 0-12.2 3.9-15.5 11.1V23.3h-10.7V71h10.7V50.6c0-10.3 5.4-18.6 12.8-18.6 6 0 7.1 4.1 7.1 13.7V71h10.7l-.1-20.5c0-10.2 5.5-18.5 12.9-18.5zM458 23.3h-5V71h10.7V52.7c0-11.6 5.1-19.4 12.7-19.4 2 0 3.6.1 5.4.8l1.7-11.3c-1.4-.1-2.6-.3-3.8-.3-7.5 0-12.9 5.2-16.1 11.8v-11H458zm-38.5-.7c-14.1 0-23.7 10.8-23.7 24.3 0 14.1 9.7 24.6 23.7 24.6 14.2 0 23.9-10.8 23.9-24.6 0-13.7-9.9-24.3-23.9-24.3zm-81 39.7c-5.6 0-9.7-2.8-11.4-8.6 14.1-.6 28-4 28-16.5 0-7.2-7.1-14.6-17.2-14.6-13.7 0-22.9 11.1-22.9 24.3 0 13.8 9.1 24.6 22.7 24.6 9.5 0 15.5-3.8 20.2-9.3l-5.2-7c-5.6 5.7-9 7.1-14.2 7.1zm-52.7-39.7c-5.4 0-10.8 3.1-12.9 8.1v-7.3h-10.7v66.5h10.7V66c2.3 3.4 7.4 5.7 12 5.7 14.2 0 21.7-10.5 21.7-24.7 0-14.1-7.4-24.4-20.8-24.4zM210.9 4.2h-50.4v10.4h19.7V71h11.2V14.6h19.5V4.2zm158.8 19.1h-6.4v9.6h6.4V71h10.7V32.9h10.4v-9.6h-10.4v-7.5c0-4.8 2-6.4 6.4-6.4 1.7 0 3.2.4 5.2 1.1l2.4-9c-2-1.1-5.9-1.6-8.4-1.6-10.2 0-16.2 6.1-16.2 16.7v6.7z" style="fill:#1a1a19"/></svg>