<svg width="121" height="32" fill="none" xmlns="http://www.w3.org/2000/svg"><g clip-path="url(#a)" fill="#000"><path d="M36.376 22.201V3h-4.343v18.828c0 2.871-1.744 4.027-3.712 4.027-2.004 0-3.785-1.268-3.785-3.729H20.23c0 5.22 3.749 7.793 8.091 7.793 4.232 0 8.055-2.237 8.055-7.718Zm2.981-2.05c0 5.331 3.86 9.693 8.945 9.693 2.673 0 4.9-1.38 5.94-2.87v2.497h4.082V10.83h-4.083v2.498c-1.04-1.492-3.266-2.871-5.939-2.871-5.085 0-8.945 4.362-8.945 9.693Zm15.218 0c0 3.355-2.227 5.965-5.53 5.965-3.304 0-5.53-2.61-5.53-5.965 0-3.356 2.226-5.966 5.53-5.966 3.303 0 5.53 2.61 5.53 5.965Zm8.167 9.32h4.083V20.3c0-3.99 2.078-6.115 4.788-6.115 2.375 0 3.86 1.79 3.86 4.735v10.551h4.083V18.25c0-4.735-2.784-7.792-7.09-7.792-2.412 0-4.528 1.044-5.641 2.908V10.83h-4.083v18.642Zm19.625-9.32c0 5.667 4.046 9.693 9.688 9.693 3.897 0 6.792-1.678 8.462-4.325L97.4 23.282c-.965 1.64-2.71 2.834-5.308 2.834-3.08 0-5.53-2.013-5.716-5.07h14.587c.037-.597.037-.933.037-1.343 0-6.003-4.083-9.246-8.945-9.246-5.642 0-9.688 4.213-9.688 9.693Zm9.54-6.227c2.375 0 4.528 1.454 4.973 4.139H86.56c.557-2.76 2.97-4.139 5.345-4.139ZM12.092 5.985c-.88-1.168-2.582-2.79-5.258-2.79C3.396 3.195.667 6.32.667 9.41s1.532 5.51 4.598 8.295c3.055 2.776 4.105 3.055 6.813 4.518 2.737-1.463 3.788-1.742 6.842-4.518 3.066-2.784 4.597-5.204 4.597-8.295 0-3.09-2.728-6.214-6.167-6.214-2.675 0-4.378 1.622-5.258 2.79Z"/></g><defs><clipPath id="a"><path fill="#fff" transform="translate(.667)" d="M0 0h119.351v32H0z"/></clipPath></defs></svg>