<svg xmlns="http://www.w3.org/2000/svg" viewBox="0 0 666 162" style="enable-background:new 0 0 666 162" xml:space="preserve"><path d="m.4 119.1 23.8-18.2C36.9 117.4 50.3 125 65.3 125c14.9 0 27.9-7.5 40-23.9l24.1 17.8C112 142.5 90.3 155 65.3 155c-25 0-46.9-12.4-64.9-35.9zm64.8-79.3L22.8 76.4 3.2 53.6 65.3.2l61.6 53.5-19.7 22.6-42-36.5zm155.5 92.7c-14.5 0-26.5-4.7-36.3-14.1-9.8-9.5-14.6-21.7-14.6-36.6 0-15 4.9-27.3 14.7-37 9.9-9.8 22-14.6 36.3-14.6 17.7 0 33.4 7.6 42.5 19.6l-16 16.8c-7.6-8.2-15.9-12.3-24.9-12.3-7.6 0-13.9 2.5-19.2 7.8-5.1 5.2-7.6 11.8-7.6 19.7 0 7.6 2.5 14.1 7.6 19.3 5.2 5.1 11.5 7.6 19 7.6 9.8 0 18.4-4.3 25.5-12.7l16.6 15.9c-4.6 6-10.7 11-18.4 14.9-7.5 3.8-15.9 5.7-25.2 5.7zm71.8-103.7V131H269V28.8h23.5zm22.4 21.7c-7.9 0-13.7-5.8-13.7-13.7 0-7.6 6-13.4 13.7-13.4 7.6 0 13.5 5.8 13.5 13.4 0 7.9-5.9 13.7-13.5 13.7zm11.9 6.5v74h-23.7V57h23.7zm45.4 75.6c-11.7 0-21-3.6-28.4-10.9-7.2-7.2-10.9-16.5-10.9-27.9s3.6-20.6 11-27.9c7.4-7.2 16.9-10.8 28.7-10.8 15.4 0 29 7.5 35.2 21.6L389 86.6c-3.8-6.3-9-9.5-15.8-9.5-5 0-9 1.6-12.2 4.8-3.1 3.2-4.8 7.5-4.7 11.9 0 9.8 7.1 17 16.6 17 6.8 0 13.1-3.8 15.8-9.5l18.9 11.2c-6.4 12.5-19.7 20.1-35.4 20.1zm117.7-1.6h-28.1l-21.9-29.3-3.5 3.2V131h-23.6V28.8h23.6v49.7L458.6 57h28.8l-31.8 29.8 34.3 44.2zm1.5-38.5V32h25.2v60.2c0 11.1 6.4 16.5 15.7 16.5 9.1 0 15.5-5.6 15.5-16.5V32h25.3v60.6c0 29.2-20.2 40.2-40.9 40.2-20.4-.1-40.8-11-40.8-40.3zm137.8-37.3c10.6 0 19.2 3.8 26 11.3 6.8 7.4 10.2 16.6 10.2 27.5 0 10.9-3.5 20.1-10.3 27.7-6.8 7.5-15.4 11.3-25.7 11.3-8.2 0-15.3-2.7-21-8v36.6h-23.7V57H608v6.8c5.6-5.7 12.7-8.6 21.2-8.6zm12 39c0-9.7-7-17-16.6-17-9.7 0-16.8 7.4-16.8 17 0 4.7 1.6 8.7 4.7 12.1 3.2 3.3 7.2 5 12.1 5 4.8 0 8.8-1.6 11.9-5 3.1-3.3 4.8-7.7 4.7-12.1z" style="fill:#231f20"/></svg>