<svg version="1.1" id="logo" xmlns="http://www.w3.org/2000/svg" x="0" y="0" viewBox="0 0 149.8 38" style="enable-background:new 0 0 149.8 38" xml:space="preserve"><style>.st0{fill-rule:evenodd;clip-rule:evenodd;fill:#231f20}</style><g id="g14" transform="translate(0 -.093)"><path id="polygon2" class="st0" d="M69.3 36.9h9V1.2h-9z"/><path id="path4" class="st0" d="M100.4 29.4c5.7 0 9.9-4.9 9.9-10.3 0-5.5-4.2-10.3-9.9-10.3s-9.9 4.8-9.9 10.3c.1 5.4 4.3 10.3 9.9 10.3m.1-29.3c10.7 0 19.3 8.2 19.3 18.9s-8.7 19.1-19.4 19.1S81 29.8 81 19.1s8.8-19 19.5-19m20.4 26 8.2-1.9c.6 4.3 3.7 5.8 7 5.8s4.5-1.9 4.5-3.4c0-1.2-.7-2.4-3.1-2.9l-5-1c-6-1.1-10.2-4.9-10.2-10.6 0-6.8 6.3-11.6 13.4-11.6 9.1 0 12.9 5.7 13.5 10.4l-8 2.2c-.4-2.9-2.2-5-5.5-5-2.9 0-4.2 1.9-4.2 3.3 0 1.2.6 2.6 2.7 3l5.2 1c6.8 1.3 10.6 5.4 10.6 10.8 0 5.8-5.1 11.4-13.8 11.4-9.2 0-14.1-4.7-15.3-11.5"/><path id="polygon6" class="st0" d="M9.6 36.9H0L15.9 1.2h9.7z"/><path id="polygon8" class="st0" d="M43.4 1.2h-11l12.1 17.5-6.8 9.7L25.6 1.2h-9.7l16 35.7h10.3l7.5-11.3 7.5 11.3h10.4L55.2 18.7 67.1 1.2H56.2l-6.5 10.6z"/></g></svg>