<svg xmlns="http://www.w3.org/2000/svg" viewBox="0 0 512 111"><path d="M94.9 57.5c-.7 2.1-1.8 4-3.2 5.7l-8.3 8.3-16.1-16 16.1-16 8.3 8.1c1.5 1.2 2.5 2.7 3.1 4.5.6 1.8.6 3.7.1 5.5ZM53.4 94.3c-2.1-.7-3.9-1.8-5.5-3.3l-8.3-8.3 16.1-16 16.1 16-8.4 8.3c-1.2 1.5-2.7 2.5-4.5 3.1-1.8.6-3.7.6-5.5.1Zm-37-41.2c.7-2.1 1.8-4 3.3-5.7l8.3-8.3 16.1 16-16.1 16-8.4-8.3c-1.5-1.2-2.5-2.7-3.1-4.5-.6-1.8-.6-3.7-.1-5.5v.2Zm41.4-37c2.1.7 4.1 1.8 5.7 3.3l8.3 8.3-16.1 16-16.1-16 8.3-8.1c1.2-1.5 2.7-2.5 4.5-3.1 1.8-.6 3.7-.6 5.5-.1v-.2Zm45.3 20.1-28.2-28c-3.3-3.1-7.2-5.4-11.5-6.9-9.6-3.2-19.1-.7-26.9 6.9l-28.3 28c-3.1 3.3-5.4 7.2-6.9 11.4-3.2 9.5-.7 19 6.9 26.7l28.1 28c3.3 3.1 7.2 5.5 11.5 7 2.6.9 5.4 1.3 8.1 1.4 3.5 0 7-.8 10.2-2.3 3.2-1.4 6.1-3.5 8.5-6.1l28.4-28c3.1-3.3 5.5-7.2 7-11.4 3.2-9.5.7-19-7-26.7m393.8 16.7h13.8c-.2-4.6-2.1-9-5.3-12.3-4.4-4.6-11.6-6.9-18.8-6.9-6.6-.3-13 1.9-18.2 6-2 1.6-3.5 3.7-4.6 6-1.1 2.3-1.6 4.9-1.5 7.4 0 3.9 1.5 7.6 4 10.5 2.5 2.9 6 4.9 9.8 5.5 5.3 1.1 11.3 1.5 16.6 2.3 1.6 0 3.1.8 4.3 2 1.1 1.2 1.7 2.7 1.7 4.3 0 6.5-7.4 7.6-12.2 7.6-3.3.3-6.5-.7-9.1-2.6-1.6-1.4-2.7-3.3-3-5.4h-13.6c.6 4.7 2.8 9 6.2 12.3 5.3 4.7 12.2 7.2 19.3 6.9 8.2 0 15.7-2.1 20.5-6.9 1.7-1.7 3.1-3.7 4-6 .9-2.2 1.3-4.6 1.2-7.1 0-9.4-6.9-15.3-16.3-16.8-5.9-.9-7.4-1-12.8-1.7-3.2-.5-6.9-1.7-6.9-6 0-1.4.5-2.7 1.3-3.9.8-1.1 2-2 3.3-2.4 2-.7 4.1-1.1 6.2-.9 2.9 0 5.7.9 7.8 2.7 1.4 1.5 2.2 3.4 2.2 5.4Zm-76.2-1.1c0-1.4.5-2.7 1.3-3.9.8-1.1 2-2 3.3-2.4 2-.7 4.1-1.1 6.2-.9 2.9 0 5.7.9 7.9 2.7 1.5 1.5 2.3 3.5 2.3 5.6h13.8c-.2-4.6-2.1-9-5.3-12.3-4.4-4.6-11.5-6.9-18.8-6.9-6.6-.3-13 1.9-18.2 6-1.9 1.6-3.5 3.7-4.5 6s-1.6 4.8-1.5 7.3c0 3.9 1.5 7.6 4 10.5 2.5 2.9 6 4.9 9.8 5.5 5.3 1.1 11.3 1.5 16.6 2.3 1.6 0 3.1.8 4.3 2 1.1 1.2 1.7 2.7 1.7 4.3 0 6.5-7.4 7.6-12.2 7.6-3.3.3-6.6-.7-9.2-2.6-1.6-1.4-2.7-3.3-3-5.4h-13.6c.6 4.7 2.8 9 6.2 12.2 5.3 4.7 12.2 7.2 19.3 6.9 8.2 0 15.7-2.1 20.5-6.9 1.7-1.7 3.1-3.7 3.9-6 .9-2.2 1.3-4.6 1.2-7.1 0-9.4-6.9-15.3-16.4-16.8-5.9-.9-7.4-1-12.8-1.7-3.2-.5-6.9-1.7-6.9-6Zm-19.3 13.7c.6-7.3-1.2-14.6-5.2-20.7-2.4-3.5-5.7-6.4-9.5-8.3-3.8-1.9-8.1-2.8-12.4-2.7-3.5-.1-7.1.5-10.4 1.8-3.3 1.3-6.3 3.3-8.8 5.7-5.8 5.8-8.6 14.3-8.6 23.8-.2 4.4.6 8.8 2.1 12.8 1.6 4.1 4 7.8 7.1 11 2.5 2.4 5.5 4.3 8.7 5.6 3.2 1.3 6.7 1.9 10.2 1.8 3.8.2 7.5-.5 11-2s6.6-3.6 9.1-6.4c2.6-3.2 4.4-7 5.1-11h-13.8c-.5 1.9-1.5 3.6-2.9 5-1.2 1.1-2.6 1.9-4.1 2.4-1.5.5-3.1.7-4.7.5-3.3 0-6.5-1.3-8.9-3.7-1.5-1.5-2.6-3.4-3.4-5.4-.8-2-1.1-4.1-1-6.3h40v-4h.2Zm-14.6-6.4H361c0-3.4 1-6.6 3.1-9.3 1.2-1.5 2.7-2.7 4.5-3.5 1.7-.8 3.6-1.2 5.6-1.1 1.7 0 3.3.2 4.9.8 1.6.6 3 1.5 4.2 2.7 2.5 2.9 3.8 6.6 3.7 10.4h-.2Zm-61.5 35.7h14.4V55c0-12.4-7.5-21.3-20.3-21.3-3.5-.2-7 .6-10.1 2.2-3.1 1.6-5.7 4-7.6 6.9l-1-7.7h-12.1v59.5h14.4V70.4c0-5 0-11.2 2-16 2-4.8 5.3-7.6 10.4-7.6 7.6 0 9.9 4.2 9.9 11.2v36.7Zm-45.5-46.9c.8 0 1.5 0 2.3.2V34.5c-.6 0-1.2-.1-1.9-.1-7 0-14.2 2.9-16.9 9.7l-1.2-8.9h-12.2v59.5h14.6v-30c0-9.6 5.3-16.9 15.4-16.9Zm-45.3 47.8c2.5 0 4.9-.5 7.1-1.6V83.5c-.6.1-1.2.2-1.8.2-2.3 0-3.3-1-3.3-3.8V57.8c.2-4.1-.4-8.2-1.7-12-3.5-8.9-12.2-12.1-22.5-12.1s-24.1 6-24.9 19.4h14c.3-5.5 4.3-8.5 10.9-8.5s10.1 3.8 10.1 9.4v3.7L204.7 59c-11.5.8-20.3 7.3-20.3 18.7s7.4 18.7 21.7 18.7 15.4-4.1 18.2-9c.3 2.4 1.5 4.7 3.4 6.2 1.9 1.6 4.3 2.3 6.8 2.1ZM222.3 71c0 8.8-6.3 13.7-15.3 13.7-1.1 0-2.1 0-3.1-.4-1-.3-1.9-.9-2.7-1.6s-1.4-1.5-1.9-2.5c-.5-.9-.7-2-.8-3 0-4.8 4.3-7.4 8.6-7.8l15.2-1.1v2.6Zm-58.6 23.7h14.5V54.6c0-12.4-7.6-21.5-20.4-21.5-3.2 0-6.3.6-9.2 2-2.9 1.4-5.4 3.4-7.3 5.9V11.3h-14.5v83.4h14.5V63.1c0-7.4 3.7-16.6 12.4-16.6s10 4.3 10 11.2v37.1Z" style="fill:#231f20"/></svg>