<svg width="117" height="32" fill="none" xmlns="http://www.w3.org/2000/svg"><g clip-path="url(#a)" fill="#202020"><path d="M.28.98C.07 1.19 0 4.579 0 14.763c0 13.103.023 13.5.444 13.734.303.14 4.975.234 13.524.234 12.356 0 13.08-.024 13.43-.42.35-.398.398-1.683.398-13.665 0-11.702-.047-13.244-.374-13.571C27.095.747 25.553.7 13.804.7 3.807.7.491.77.28.98Zm16.63 8.316 3.178 2.616v10.091l-.748-.561c-4.835-3.644-5.91-4.391-6.12-4.321-.14.07-1.588 1.12-3.246 2.359-1.635 1.238-3.083 2.242-3.2 2.242-.14 0-.234-1.868-.234-4.905v-4.882l3.34-2.71c1.822-1.47 3.434-2.662 3.574-2.639.163.047 1.705 1.262 3.457 2.71Z"/><path d="M11.399 11.469 9.577 12.87v3.994l.887-.654c.467-.35 1.308-1.004 1.869-1.401l1.028-.771 1.658 1.238c.934.677 1.822 1.308 1.985 1.401.21.117.28-.28.28-1.798v-1.986l-1.751-1.308c-.981-.724-1.892-1.378-2.056-1.424-.14-.07-1.097.537-2.078 1.308Zm31.369-6.518c-.117.304-1.425 4.064-2.92 8.362-1.518 4.298-3.06 8.69-3.433 9.764-.374 1.074-.678 1.985-.678 2.055 0 .047.864.094 1.939.094h1.915l.888-2.57.91-2.57h7.849l.864 2.57.865 2.57h1.962c1.074 0 1.962-.024 1.962-.07 0-.024-1.635-4.672-3.62-10.301C49.284 9.225 47.65 4.577 47.65 4.53c0-.047-1.051-.094-2.336-.094-2.219 0-2.36.024-2.546.514Zm4.017 7.731c.725 2.22 1.332 4.112 1.332 4.205 0 .093-1.261.163-2.803.163s-2.803-.07-2.803-.163c0-.35 2.686-8.245 2.803-8.245.07 0 .724 1.822 1.471 4.04Zm17.168-3.106c-.958.28-1.635.84-2.219 1.822l-.537.864V9.576h-3.504v15.65h3.504V20.25c0-5.746.117-6.213 1.892-7.124.794-.42 1.308-.514 2.266-.444l1.238.094-.07-1.658-.07-1.659-.935-.047c-.514-.023-1.214.047-1.565.164Zm26.161.07c-2.15.607-3.62 1.962-4.672 4.274-.42.935-.514 1.565-.537 3.597 0 2.22.07 2.593.677 3.925 1.285 2.756 3.41 4.017 6.82 4.017 2.897 0 4.602-.747 5.957-2.64 1.051-1.471.958-1.704-.887-1.915-1.542-.163-1.566-.14-2.15.538-.817.957-1.424 1.214-2.826 1.214-2.242 0-3.69-1.168-3.924-3.177l-.117-1.027H99.34l-.117-1.939c-.187-3.223-1.495-5.372-3.97-6.47-1.402-.607-3.714-.794-5.14-.397Zm4.064 3.153c.748.444 1.588 1.869 1.588 2.71v.607h-7.24v-.584c0-2.5 3.34-4.111 5.652-2.733Zm13.291-3.223c-2.149.467-3.808 1.845-4.859 4.087-.584 1.262-.654 1.659-.654 3.854 0 2.313.047 2.57.771 4.018 1.378 2.803 3.294 3.924 6.704 3.924 1.658 0 2.102-.093 3.34-.724 2.242-1.121 3.34-2.71 3.831-5.56.677-3.9-.911-7.567-3.854-8.992-1.379-.677-3.691-.934-5.279-.607Zm3.644 3.27c1.308.794 1.821 2.102 1.821 4.671 0 1.94-.07 2.36-.584 3.247-.77 1.355-1.868 1.962-3.34 1.822-1.354-.117-2.172-.677-2.826-1.939-.701-1.331-.701-4.951 0-6.283.981-1.869 3.223-2.57 4.929-1.518ZM68.438 10.16c.117.304 1.378 3.877 2.803 7.942 2.826 7.988 2.85 8.128 1.705 9.483-.537.63-.724.7-1.682.63l-1.074-.046-.444 1.355c-.514 1.681-.42 1.775 1.869 1.775 3.13 0 4.554-1.285 6.026-5.513A6540.56 6540.56 0 0 1 83.27 9.973c.163-.373.023-.42-1.775-.35l-1.939.07-.91 2.92c-.491 1.611-1.332 4.274-1.846 5.933-.584 1.938-1.004 2.92-1.121 2.686-.094-.187-.934-2.873-1.892-6.003l-1.705-5.653h-3.878l.234.584Z"/></g><defs><clipPath id="a"><path fill="#fff" d="M0 0h117v32H0z"/></clipPath></defs></svg>