<svg width="143" height="22" fill="none" xmlns="http://www.w3.org/2000/svg"><path d="M41.314 5.902c-1.138 0-1.723.738-2.015 1.477l-3.321 8.872-3.26-8.81c-.308-.877-.938-1.539-2.092-1.539-1.168 0-2.09 1-2.09 2.015 0 .4.107.769.23 1.045l4.644 10.75c.477 1.137 1.276 1.875 2.43 1.875h.23c1.169 0 1.953-.769 2.445-1.876l4.644-10.749c.092-.2.23-.645.23-1.014 0-1.17-.937-2.046-2.075-2.046Zm72.334 3.844a1.84 1.84 0 0 0 1.845-1.845 1.84 1.84 0 0 0-1.845-1.845h-1.907V4.165a2.158 2.158 0 0 0-2.152-2.153 2.159 2.159 0 0 0-2.153 2.153V6.07h-.139a1.84 1.84 0 0 0-1.845 1.846 1.84 1.84 0 0 0 1.845 1.845h.139v7.196c0 3.522 1.783 4.567 4.428 4.567.938 0 1.676-.107 2.461-.43a1.748 1.748 0 0 0 1.107-1.615c0-1-.815-1.784-1.784-1.784-.092 0-.369.031-.507.031-.969 0-1.384-.477-1.384-1.476V9.746h1.891ZM24.337 5.902a2.16 2.16 0 0 0-2.153 2.153v11.226a2.16 2.16 0 0 0 2.153 2.152 2.16 2.16 0 0 0 2.153-2.152V8.054a2.15 2.15 0 0 0-2.153-2.153Zm-7.304 3.937h-4.982a1.89 1.89 0 0 0-1.892 1.891c0 1.046.846 1.876 1.892 1.876h2.952v2.83c-1.107.8-2.522 1.184-4.105 1.184-3.522 0-6.013-2.66-6.013-6.29v-.06c0-3.369 2.522-6.183 5.69-6.183 1.876 0 3.152.508 4.336 1.354a2.1 2.1 0 0 0 1.338.446 2.16 2.16 0 0 0 2.153-2.153 2.16 2.16 0 0 0-.908-1.753c-1.783-1.246-3.767-1.922-6.766-1.922C4.716 1.059.333 5.672.333 11.315v.062c0 5.874 4.244 10.21 10.426 10.21 2.983 0 5.32-1 6.95-1.983 1.046-.63 1.538-1.507 1.538-2.784v-4.813c-.03-1.2-1-2.168-2.214-2.168Zm123.679-3.937c-1.276 0-2.291 1.354-2.922 2.83v-.677a2.158 2.158 0 0 0-2.152-2.153 2.16 2.16 0 0 0-2.153 2.153v11.226a2.16 2.16 0 0 0 2.153 2.152 2.158 2.158 0 0 0 2.152-2.152v-4.03c0-3.06 1.215-4.736 3.399-5.243.876-.2 1.614-.876 1.614-2.014 0-1.215-.769-2.092-2.091-2.092ZM24.337.428c-1.353 0-2.414.769-2.414 2.014v.062c0 1.245 1.046 2.045 2.414 2.045 1.353 0 2.414-.8 2.414-2.045v-.062c-.015-1.245-1.06-2.014-2.414-2.014ZM90.92 5.902a2.16 2.16 0 0 0-2.152 2.153v6.49c0 2.045-1.046 3.09-2.691 3.09-1.646 0-2.614-1.046-2.614-3.09v-6.49a2.16 2.16 0 0 0-2.153-2.153 2.16 2.16 0 0 0-2.153 2.153v7.858c0 3.49 1.891 5.643 5.151 5.643 2.184 0 3.46-1.168 4.444-2.445v.17a2.16 2.16 0 0 0 2.153 2.152 2.16 2.16 0 0 0 2.153-2.152V8.054a2.117 2.117 0 0 0-2.137-2.153Zm11.949 3.844a1.84 1.84 0 0 0 1.845-1.845 1.84 1.84 0 0 0-1.845-1.845h-1.892V4.165a2.159 2.159 0 0 0-2.153-2.153 2.16 2.16 0 0 0-2.152 2.153V6.07h-.154a1.84 1.84 0 0 0-1.845 1.846 1.84 1.84 0 0 0 1.845 1.845h.138v7.196c0 3.522 1.784 4.567 4.429 4.567.938 0 1.676-.107 2.46-.43.6-.23 1.107-.846 1.107-1.615 0-1-.815-1.784-1.783-1.784-.093 0-.369.031-.508.031-.969 0-1.384-.477-1.384-1.476V9.746h1.892Zm20.99-3.966h-.047c-4.397.015-7.473 3.582-7.473 7.903v.062c0 4.49 3.137 7.627 7.473 7.842.154 0 .308.015.462.015 2.214 0 3.936-.707 5.274-1.845.308-.277.569-.707.569-1.276 0-.969-.707-1.707-1.676-1.707-.446 0-.738.108-1.046.338a5.01 5.01 0 0 1-3.06 1.015c-.184 0-.353-.015-.523-.03-1.645-.17-2.798-1.17-3.183-2.953h8.519c1.138 0 2.015-.815 2.015-2.076.015-3.121-2.23-7.289-7.304-7.289Zm-.047 6.688h-3.244c.338-1.937 1.476-3.213 3.244-3.229h.047c1.814 0 2.952 1.307 3.198 3.23h-3.245ZM70.161 5.78c-.384 0-.753.03-1.091.092-1.63.277-2.768 1.2-3.645 2.368V2.55A2.16 2.16 0 0 0 63.272.397 2.16 2.16 0 0 0 61.12 2.55v16.715a2.16 2.16 0 0 0 2.152 2.153c1.184 0 2.153-.969 2.153-2.137v-.031c.846 1.015 1.968 1.907 3.645 2.183.338.062.707.093 1.091.093 3.599 0 6.92-2.784 6.92-7.858v-.061c0-5.044-3.368-7.828-6.92-7.828Zm2.614 7.919c0 2.537-1.691 4.182-3.706 4.198h-.015c-2.014 0-3.69-1.676-3.69-4.198v-.062c0-2.522 1.676-4.198 3.69-4.198h.016c1.999.016 3.706 1.676 3.706 4.198v.062ZM51.509 5.78h-.046c-4.398.015-7.474 3.582-7.474 7.903v.062c0 4.49 3.137 7.627 7.474 7.842.153 0 .307.015.461.015 2.214 0 3.937-.707 5.274-1.845.308-.277.57-.707.57-1.276 0-.969-.708-1.707-1.677-1.707-.446 0-.738.108-1.046.338a5.01 5.01 0 0 1-3.06 1.015c-.184 0-.353-.015-.522-.03-1.646-.17-2.799-1.17-3.184-2.953h8.519c1.138 0 2.015-.815 2.015-2.076 0-3.121-2.23-7.289-7.304-7.289Zm-.046 6.688h-3.245c.338-1.937 1.476-3.213 3.245-3.229h.046c1.814 0 2.952 1.307 3.198 3.23h-3.244Z" fill="#202020"/></svg>