<svg width="134" height="32" fill="none" xmlns="http://www.w3.org/2000/svg"><g clip-path="url(#a)"><path d="M128.283 4.696c.541.543 1.18.814 1.917.814.76 0 1.41-.271 1.951-.814.541-.543.812-1.184.812-1.923 0-.74-.271-1.387-.812-1.941C131.61.277 130.96 0 130.2 0c-.737 0-1.376.277-1.917.832-.541.554-.812 1.201-.812 1.94 0 .74.271 1.381.812 1.924Zm-58.268 7.089a.103.103 0 0 1-.103.103h-3.8v7.208c0 .601.15 1.04.45 1.317.299.278.736.433 1.312.468.526.032 1.169.03 1.927-.006l.019-.001.035-.002.052-.003a.103.103 0 0 1 .108.103v3.855c0 .052-.04.096-.091.102l-.07.007c-2.977.319-5.082.024-6.315-.884-1.255-.924-1.882-2.576-1.882-4.956v-7.208h-2.902a.103.103 0 0 1-.103-.103V7.693c0-.056.046-.102.103-.102h2.902V4.728c0-.081.048-.155.122-.188l4.189-1.85c.068-.03.144.02.144.095V7.59h3.8c.057 0 .103.046.103.102v4.092Zm8.079-1.215c.415-1.108 1.1-1.94 2.055-2.495a6.185 6.185 0 0 1 3.091-.83c.058 0 .104.045.104.103v4.702a.167.167 0 0 1-.183.165c-1.285-.117-2.438.167-3.46.851-1.071.716-1.607 1.906-1.607 3.57v8.18a.103.103 0 0 1-.103.102h-4.25a.103.103 0 0 1-.102-.102V7.693c0-.057.046-.103.103-.103h4.25c.056 0 .102.046.102.103v2.878Z" fill="#202020"/><path fill-rule="evenodd" clip-rule="evenodd" d="M99.162 7.59a.103.103 0 0 0-.103.102v1.942c-1.335-1.686-3.212-2.53-5.63-2.53-2.302 0-4.276.884-5.923 2.652-1.646 1.767-2.47 3.933-2.47 6.498 0 2.564.824 4.73 2.47 6.498 1.647 1.767 3.62 2.651 5.924 2.651 2.417 0 4.294-.843 5.63-2.53v1.942c0 .057.045.103.102.103h4.25a.103.103 0 0 0 .103-.103V7.692a.103.103 0 0 0-.103-.102h-4.25ZM90.84 19.789c.898.901 2.038 1.351 3.42 1.351 1.38 0 2.526-.456 3.436-1.368.91-.913 1.364-2.085 1.364-3.518 0-1.433-.455-2.605-1.364-3.518-.91-.912-2.055-1.369-3.437-1.369-1.381 0-2.521.457-3.42 1.37-.897.912-1.346 2.085-1.346 3.517s.449 2.61 1.347 3.535Zm32.027-10.033c-1.647-1.768-3.633-2.652-5.958-2.652-2.418 0-4.283.844-5.596 2.53V7.692a.103.103 0 0 0-.102-.102h-4.25a.103.103 0 0 0-.103.102v24.054c0 .057.046.103.103.103h4.25a.103.103 0 0 0 .102-.103v-8.873c1.313 1.687 3.178 2.53 5.596 2.53 2.325 0 4.311-.884 5.958-2.651 1.646-1.768 2.469-3.934 2.469-6.498 0-2.565-.823-4.73-2.469-6.498ZM112.66 19.789c.898.901 2.038 1.351 3.419 1.351 1.382 0 2.528-.456 3.437-1.368.91-.913 1.364-2.085 1.364-3.518 0-1.433-.454-2.605-1.364-3.518-.909-.912-2.055-1.369-3.437-1.369-1.381 0-2.521.457-3.419 1.37-.898.912-1.347 2.085-1.347 3.517s.449 2.61 1.347 3.535Z" fill="#202020"/><path d="M128.093 24.918a.103.103 0 0 1-.103-.103V7.693c0-.057.046-.103.103-.103h4.249c.057 0 .103.046.103.103v17.122a.103.103 0 0 1-.103.103h-4.249ZM48.56 13.637c-.61-.289-.915-.664-.915-1.126 0-.44.19-.786.57-1.04.38-.254.858-.381 1.433-.381 1.104 0 1.938.432 2.502 1.295.04.06.116.085.182.056l3.759-1.67a.102.102 0 0 0 .046-.145 9.261 9.261 0 0 0-.132-.218c-.644-1.016-1.478-1.774-2.523-2.35-1.151-.636-2.43-.954-3.834-.954-1.865 0-3.425.491-4.68 1.473-1.255.982-1.882 2.328-1.882 4.038 0 1.132.305 2.073.915 2.824.61.751 1.353 1.3 2.228 1.646.875.347 1.75.636 2.625.867.875.231 1.617.49 2.228.78.61.288.915.664.915 1.126 0 .994-.794 1.49-2.383 1.49-1.513 0-2.56-.56-3.144-1.682a.205.205 0 0 0-.264-.096l-3.749 1.666a.103.103 0 0 0-.05.138c.014.032.03.064.042.088 1.31 2.627 3.698 3.941 7.165 3.941 1.98 0 3.632-.48 4.956-1.438 1.324-.96 1.986-2.328 1.986-4.107 0-1.178-.305-2.16-.915-2.946-.61-.785-1.353-1.346-2.228-1.68a22.985 22.985 0 0 0-2.625-.832c-.875-.22-1.617-.474-2.228-.763ZM.887 11.093c0-5.23 0-7.844 1.624-9.468C4.136 0 6.751 0 11.98 0h9.813c5.23 0 7.845 0 9.47 1.625 1.624 1.624 1.624 4.239 1.624 9.468v9.814c0 5.23 0 7.844-1.625 9.468C29.637 32 27.022 32 21.793 32H11.98c-5.23 0-7.844 0-9.469-1.625C.887 28.751.887 26.136.887 20.907v-9.814Z" fill="#202020"/><path fill-rule="evenodd" clip-rule="evenodd" d="M22.967 9.707H12.193V15.2h5.494v5.494h5.493V9.92a.213.213 0 0 0-.213-.213Z" fill="#fff"/><path d="M17.686 15.2h-.213v.214h.213V15.2Z" fill="#fff"/><path d="M12.193 15.2h5.28c.118 0 .214.096.214.214v5.28h-5.28a.213.213 0 0 1-.214-.214V15.2Z" fill="#fff" fill-opacity=".8"/><path d="M17.686 20.693h5.494l-5.311 5.312a.107.107 0 0 1-.183-.076v-5.236ZM12.193 15.2H6.957a.107.107 0 0 1-.075-.182l5.311-5.311V15.2Z" fill="#fff" fill-opacity=".8"/></g><defs><clipPath id="a"><path fill="#fff" transform="translate(.887)" d="M0 0h132.226v32H0z"/></clipPath></defs></svg>